<?xml version="1.0" encoding="UTF-8"?> <svg xmlns="http://www.w3.org/2000/svg" width="179" height="53" viewBox="0 0 179 53" fill="none"><mask id="mask0" maskUnits="userSpaceOnUse" x="7" y="0" width="39" height="53"><path d="M7.21094 0.500488H45.4927V52.9005H7.21094V0.500488Z" fill="white"></path></mask><g mask="url(#mask0)"><path fill-rule="evenodd" clip-rule="evenodd" d="M15.5818 0.5C15.5818 0.5 27.5033 14.9208 31.9161 23.7049C34.1389 28.1293 41.4508 41.4226 45.478 52.8343C46.2472 55.0116 16.7139 3.12359 7.21094 16.8919C7.21094 16.8919 12.9339 3.51105 15.5818 0.5Z" fill="#1B75BB"></path></g><path fill-rule="evenodd" clip-rule="evenodd" d="M0 46.6726C0 46.6726 1.58498 37.4034 12.6453 37.489C19.4361 37.5428 29.8102 40.8965 45.5503 52.7554C45.5503 52.7554 38.8029 43.6805 29.8754 36.3037C26.6728 33.6572 22.5546 31.1163 18.4592 29.2129C13.815 27.0554 7.53337 26.0564 3.58426 28.6631C3.55756 28.68 3.59909 28.6431 3.55163 28.7557C2.49168 31.2408 0.301572 44.1237 0 46.6726Z" fill="#76B3E2"></path><path fill-rule="evenodd" clip-rule="evenodd" d="M50.6577 26.0604C50.5727 26.2177 50.4095 26.3313 50.1683 26.403C49.927 26.4747 49.7144 26.5245 49.5305 26.5524C48.9639 26.653 48.3796 26.7427 47.7774 26.8204C47.1753 26.899 46.6255 27.0166 46.1292 27.174C45.6338 27.3303 45.2264 27.5554 44.908 27.8483C44.5887 28.1411 44.4295 28.5585 44.4295 29.1013C44.4295 29.4429 44.4967 29.7467 44.6312 30.0117C44.7657 30.2746 44.9466 30.5037 45.173 30.696C45.4004 30.8892 45.6625 31.0356 45.9601 31.1352C46.2577 31.2348 46.5613 31.2846 46.8737 31.2846C47.3839 31.2846 47.8733 31.2069 48.341 31.0496C48.8077 30.8932 49.2161 30.6641 49.5631 30.3643C49.9102 30.0655 50.1861 29.6999 50.3917 29.2726C50.5964 28.8443 50.7002 28.3592 50.7002 27.8164V26.0604H50.6577ZM43.9618 22.7625C44.1882 22.2913 44.4967 21.9059 44.8863 21.6061C45.2759 21.3072 45.7337 21.0851 46.2577 20.9427C46.7817 20.8003 47.3621 20.7275 47.9999 20.7275C48.4824 20.7275 48.9639 20.7744 49.4455 20.868C49.927 20.9606 50.3601 21.1359 50.7427 21.3919C51.1254 21.6489 51.4368 22.0104 51.6781 22.4726C51.9184 22.9378 52.039 23.5414 52.039 24.2834V30.1501C52.039 30.692 52.301 30.9639 52.826 30.9639C52.9813 30.9639 53.1237 30.936 53.2512 30.8782V32.0137C53.095 32.0416 52.9566 32.0625 52.8359 32.0775C52.7163 32.0924 52.563 32.0984 52.3791 32.0984C52.039 32.0984 51.7661 32.0536 51.5614 31.96C51.3558 31.8673 51.1956 31.7348 51.0829 31.5635C50.9691 31.3922 50.895 31.188 50.8594 30.9529C50.8238 30.7179 50.806 30.4569 50.806 30.172H50.7635C50.5222 30.5286 50.278 30.8464 50.0308 31.1243C49.7826 31.4022 49.5058 31.6352 49.2012 31.8205C48.8967 32.0068 48.5497 32.1482 48.1601 32.2488C47.7695 32.3474 47.3058 32.3982 46.7669 32.3982C46.2577 32.3982 45.7791 32.3384 45.3332 32.2169C44.8863 32.0964 44.4967 31.9022 44.1635 31.6392C43.8303 31.3743 43.5683 31.0386 43.3774 30.6322C43.1856 30.2258 43.0907 29.7428 43.0907 29.187C43.0907 28.416 43.2608 27.8134 43.5999 27.3771C43.94 26.9419 44.3899 26.6102 44.9506 26.3811C45.5092 26.154 46.141 25.9926 46.8421 25.9C47.5431 25.8064 48.255 25.7177 48.9778 25.6321C49.2616 25.6032 49.5097 25.5683 49.7223 25.5255C49.9349 25.4827 50.1119 25.407 50.2533 25.2994C50.3947 25.1928 50.5054 25.0464 50.5835 24.8611C50.6607 24.6759 50.7002 24.4328 50.7002 24.133C50.7002 23.6758 50.626 23.3013 50.4767 23.0095C50.3284 22.7166 50.1218 22.4846 49.8598 22.3132C49.5977 22.1409 49.2932 22.0234 48.9461 21.9596C48.5991 21.8949 48.2273 21.863 47.8308 21.863C46.9805 21.863 46.2854 22.0662 45.7475 22.4726C45.2086 22.881 44.9248 23.5334 44.8972 24.4328H43.5574C43.5999 23.7904 43.7354 23.2336 43.9618 22.7625Z" fill="#6C6C6C"></path><path fill-rule="evenodd" clip-rule="evenodd" d="M63.2943 24.8716C63.1598 24.3088 62.9472 23.8048 62.6565 23.3616C62.3668 22.9193 61.9941 22.5598 61.5412 22.2799C61.0874 22.002 60.5416 21.8625 59.9038 21.8625C59.1672 21.8625 58.5502 21.991 58.0548 22.248C57.5585 22.505 57.162 22.8486 56.8644 23.2759C56.5668 23.7042 56.3571 24.2042 56.2375 24.775C56.1169 25.3467 56.0566 25.9453 56.0566 26.5738C56.0566 27.1446 56.1238 27.7133 56.2583 28.2771C56.3927 28.8398 56.6122 29.3438 56.9178 29.7861C57.2223 30.2293 57.6188 30.5889 58.1072 30.8678C58.5967 31.1457 59.1949 31.2841 59.9038 31.2841C60.5416 31.2841 61.0874 31.1457 61.5412 30.8678C61.9941 30.5889 62.3668 30.2293 62.6565 29.7861C62.9472 29.3438 63.1598 28.8398 63.2943 28.2771C63.4288 27.7133 63.497 27.1446 63.497 26.5738C63.497 26.0031 63.4288 25.4353 63.2943 24.8716ZM55.9508 21.0498V23.1484H55.9923C56.3047 22.3775 56.811 21.7808 57.513 21.3605C58.214 20.9392 59.011 20.728 59.9038 20.728C60.7403 20.728 61.4661 20.8854 62.0831 21.1992C62.6991 21.5139 63.2122 21.9382 63.6235 22.4731C64.0349 23.009 64.3394 23.6295 64.5381 24.3367C64.7359 25.0429 64.8358 25.7889 64.8358 26.5738C64.8358 27.3587 64.7359 28.1047 64.5381 28.8119C64.3394 29.5181 64.0349 30.1397 63.6235 30.6745C63.2122 31.2094 62.6991 31.6307 62.0831 31.9385C61.4661 32.2443 60.7403 32.3987 59.9038 32.3987C59.5073 32.3987 59.1108 32.3479 58.7134 32.2483C58.3169 32.1487 57.9481 31.9983 57.6089 31.7991C57.2678 31.5989 56.9672 31.3499 56.7052 31.0491C56.4422 30.7492 56.2405 30.4006 56.0991 30.0002H56.0566V36.1677H54.7178V21.0498H55.9508Z" fill="#6C6C6C"></path><path fill-rule="evenodd" clip-rule="evenodd" d="M75.4953 24.8716C75.3609 24.3088 75.1483 23.8048 74.8576 23.3616C74.5679 22.9193 74.1951 22.5598 73.7423 22.2799C73.2884 22.002 72.7426 21.8625 72.1049 21.8625C71.3683 21.8625 70.7513 21.991 70.2559 22.248C69.7595 22.505 69.363 22.8486 69.0654 23.2759C68.7678 23.7042 68.5582 24.2042 68.4386 24.775C68.3179 25.3467 68.2576 25.9453 68.2576 26.5738C68.2576 27.1446 68.3248 27.7133 68.4593 28.2771C68.5938 28.8398 68.8133 29.3438 69.1188 29.7861C69.4234 30.2293 69.8199 30.5889 70.3083 30.8678C70.7977 31.1457 71.3959 31.2841 72.1049 31.2841C72.7426 31.2841 73.2884 31.1457 73.7423 30.8678C74.1951 30.5889 74.5679 30.2293 74.8576 29.7861C75.1483 29.3438 75.3609 28.8398 75.4953 28.2771C75.6298 27.7133 75.698 27.1446 75.698 26.5738C75.698 26.0031 75.6298 25.4353 75.4953 24.8716ZM68.1518 21.0498V23.1484H68.1933C68.5058 22.3775 69.012 21.7808 69.7141 21.3605C70.4151 20.9392 71.212 20.728 72.1049 20.728C72.9414 20.728 73.6671 20.8854 74.2841 21.1992C74.9001 21.5139 75.4133 21.9382 75.8246 22.4731C76.2359 23.009 76.5405 23.6295 76.7392 24.3367C76.937 25.0429 77.0368 25.7889 77.0368 26.5738C77.0368 27.3587 76.937 28.1047 76.7392 28.8119C76.5405 29.5181 76.2359 30.1397 75.8246 30.6745C75.4133 31.2094 74.9001 31.6307 74.2841 31.9385C73.6671 32.2443 72.9414 32.3987 72.1049 32.3987C71.7084 32.3987 71.3119 32.3479 70.9144 32.2483C70.5179 32.1487 70.1491 31.9983 69.81 31.7991C69.4688 31.5989 69.1683 31.3499 68.9062 31.0491C68.6432 30.7492 68.4415 30.4006 68.3001 30.0002H68.2576V36.1677H66.9188V21.0498H68.1518Z" fill="#6C6C6C"></path><mask id="mask1" maskUnits="userSpaceOnUse" x="0" y="0" width="179" height="53"><path d="M0 52.9005H178.77V0.500488H0V52.9005Z" fill="white"></path></mask><g mask="url(#mask1)"><path fill-rule="evenodd" clip-rule="evenodd" d="M79.1415 32.0989H80.4803V16.8096H79.1415V32.0989Z" fill="#6C6C6C"></path><path fill-rule="evenodd" clip-rule="evenodd" d="M83.0737 32.0989H84.4125V21.0497H83.0737V32.0989ZM83.0737 18.972H84.4125V16.8096H83.0737V18.972Z" fill="#6C6C6C"></path><path fill-rule="evenodd" clip-rule="evenodd" d="M94.6054 24.3257C94.4422 23.8536 94.2128 23.4363 93.9142 23.0727C93.6166 22.7092 93.2557 22.4163 92.8305 22.1942C92.4044 21.9741 91.9228 21.8625 91.385 21.8625C90.8322 21.8625 90.3428 21.9741 89.9186 22.1942C89.4934 22.4163 89.1316 22.7092 88.8339 23.0727C88.5363 23.4363 88.299 23.8576 88.122 24.3367C87.9441 24.8148 87.8284 25.3029 87.771 25.8029H94.8713C94.8565 25.2889 94.7675 24.7969 94.6054 24.3257ZM87.9727 28.4484C88.1072 28.9683 88.3237 29.4365 88.6214 29.8498C88.919 30.2642 89.2937 30.6078 89.7476 30.8777C90.2014 31.1497 90.7472 31.2841 91.385 31.2841C92.3618 31.2841 93.1281 31.0281 93.6799 30.5142C94.2336 30.0002 94.6162 29.3149 94.8288 28.4583H96.1676C95.8838 29.7144 95.3637 30.6855 94.6054 31.3698C93.846 32.0561 92.7732 32.3977 91.385 32.3977C90.5198 32.3977 89.7723 32.2443 89.1424 31.9385C88.5116 31.6307 87.9975 31.2094 87.601 30.6745C87.2045 30.1397 86.9098 29.5181 86.719 28.8119C86.5282 28.1047 86.4323 27.3587 86.4323 26.5738C86.4323 25.8457 86.5282 25.1325 86.719 24.4323C86.9098 23.7331 87.2045 23.1086 87.601 22.5598C87.9975 22.0099 88.5116 21.5667 89.1424 21.232C89.7723 20.8964 90.5198 20.728 91.385 20.728C92.263 20.728 93.0144 20.9063 93.6373 21.2639C94.2613 21.6205 94.7675 22.0876 95.1581 22.6663C95.5476 23.244 95.8275 23.9074 95.9975 24.6574C96.1676 25.4065 96.2378 26.1674 96.2101 26.9384H87.771C87.771 27.4234 87.8383 27.9265 87.9727 28.4484Z" fill="#6C6C6C"></path><path fill-rule="evenodd" clip-rule="evenodd" d="M99.0905 28.2766C99.225 28.8393 99.4376 29.3433 99.7283 29.7856C100.018 30.2288 100.39 30.5884 100.844 30.8673C101.296 31.1452 101.843 31.2846 102.481 31.2846C103.19 31.2846 103.788 31.1452 104.277 30.8673C104.766 30.5884 105.163 30.2288 105.467 29.7856C105.773 29.3433 105.991 28.8393 106.126 28.2766C106.261 27.7128 106.328 27.1441 106.328 26.5733C106.328 26.0026 106.261 25.4348 106.126 24.8711C105.991 24.3083 105.773 23.8043 105.467 23.3611C105.163 22.9188 104.766 22.5593 104.277 22.2794C103.788 22.0015 103.19 21.863 102.481 21.863C101.843 21.863 101.296 22.0015 100.844 22.2794C100.39 22.5593 100.018 22.9188 99.7283 23.3611C99.4376 23.8043 99.225 24.3083 99.0905 24.8711C98.9551 25.4348 98.8888 26.0026 98.8888 26.5733C98.8888 27.1441 98.9551 27.7128 99.0905 28.2766ZM106.435 32.0984V29.9997H106.393C106.25 30.3563 106.041 30.685 105.765 30.9848C105.489 31.2846 105.172 31.5376 104.819 31.7448C104.465 31.952 104.086 32.1123 103.682 32.2269C103.278 32.3404 102.878 32.3982 102.481 32.3982C101.645 32.3982 100.919 32.2438 100.302 31.938C99.6858 31.6302 99.1716 31.2089 98.7613 30.674C98.35 30.1392 98.0444 29.5176 97.8467 28.8114C97.648 28.1042 97.5491 27.3582 97.5491 26.5733C97.5491 25.7884 97.648 25.0424 97.8467 24.3362C98.0444 23.629 98.35 23.0085 98.7613 22.4726C99.1716 21.9377 99.6858 21.5134 100.302 21.1997C100.919 20.8849 101.645 20.7275 102.481 20.7275C102.892 20.7275 103.292 20.7783 103.682 20.8769C104.071 20.9775 104.436 21.1309 104.777 21.3381C105.117 21.5453 105.418 21.7983 105.68 22.0981C105.943 22.3979 106.144 22.7475 106.286 23.1479H106.328V16.8091H107.668V32.0984H106.435Z" fill="#6C6C6C"></path><path fill-rule="evenodd" clip-rule="evenodd" d="M112.812 32.0984L109.048 21.0283H112.215L114.533 28.5873H114.576L116.892 21.0283H119.89L116.169 32.0984H112.812Z" fill="#6C6C6C"></path><path fill-rule="evenodd" clip-rule="evenodd" d="M121.228 32.0989H124.247V21.0288H121.228V32.0989ZM121.228 19.3156H124.247V16.8096H121.228V19.3156Z" fill="#6C6C6C"></path><path fill-rule="evenodd" clip-rule="evenodd" d="M129.169 29.3468C129.303 29.5819 129.477 29.7751 129.689 29.9255C129.901 30.0749 130.145 30.1855 130.423 30.2572C130.699 30.3279 130.986 30.3638 131.283 30.3638C131.496 30.3638 131.719 30.3389 131.952 30.2891C132.187 30.2393 132.4 30.1606 132.591 30.053C132.781 29.9464 132.941 29.804 133.068 29.6247C133.197 29.4474 133.261 29.2223 133.261 28.9514C133.261 28.4942 132.958 28.1516 132.357 27.9225C131.753 27.6944 130.915 27.4663 129.838 27.2382C129.398 27.1376 128.97 27.02 128.552 26.8836C128.133 26.7491 127.762 26.5708 127.435 26.3487C127.11 26.1286 126.847 25.8497 126.649 25.514C126.45 25.1784 126.351 24.768 126.351 24.2829C126.351 23.5687 126.49 22.9841 126.766 22.5269C127.043 22.0697 127.408 21.7101 127.861 21.4452C128.314 21.1812 128.824 20.996 129.392 20.8884C129.958 20.7808 130.54 20.728 131.134 20.728C131.73 20.728 132.307 20.7848 132.866 20.9003C133.427 21.0139 133.926 21.2061 134.365 21.478C134.804 21.749 135.169 22.1085 135.46 22.5598C135.75 23.009 135.924 23.5757 135.981 24.262H133.111C133.068 23.6763 132.849 23.2799 132.451 23.0727C132.056 22.8655 131.587 22.7629 131.049 22.7629C130.879 22.7629 130.695 22.7729 130.496 22.7948C130.299 22.8157 130.118 22.8626 129.955 22.9343C129.791 23.005 129.653 23.1086 129.54 23.244C129.427 23.3805 129.369 23.5618 129.369 23.7899C129.369 24.0618 129.469 24.2829 129.668 24.4542C129.866 24.6256 130.125 24.764 130.443 24.8716C130.762 24.9782 131.127 25.0748 131.538 25.1604C131.949 25.2461 132.367 25.3397 132.792 25.4383C133.231 25.5389 133.659 25.6604 134.079 25.8029C134.496 25.9453 134.869 26.1346 135.194 26.3706C135.52 26.6057 135.781 26.8985 135.981 27.2491C136.18 27.5988 136.279 28.03 136.279 28.544C136.279 29.2721 136.133 29.8817 135.843 30.3747C135.552 30.8668 135.173 31.2632 134.706 31.564C134.238 31.8628 133.703 32.073 133.101 32.1945C132.498 32.315 131.885 32.3768 131.262 32.3768C130.624 32.3768 130.001 32.313 129.392 32.1845C128.781 32.0561 128.24 31.8419 127.765 31.5411C127.291 31.2423 126.9 30.8459 126.596 30.3538C126.291 29.8618 126.125 29.2432 126.096 28.5002H128.966C128.966 28.8289 129.033 29.1117 129.169 29.3468Z" fill="#6C6C6C"></path><path fill-rule="evenodd" clip-rule="evenodd" d="M138.127 32.0989H141.146V21.0288H138.127V32.0989ZM138.127 19.3156H141.146V16.8096H138.127V19.3156Z" fill="#6C6C6C"></path><path fill-rule="evenodd" clip-rule="evenodd" d="M146.333 27.8697C146.418 28.291 146.562 28.6695 146.768 29.0052C146.973 29.3408 147.246 29.6078 147.588 29.807C147.927 30.0072 148.352 30.1078 148.862 30.1078C149.372 30.1078 149.801 30.0072 150.147 29.807C150.495 29.6078 150.771 29.3408 150.977 29.0052C151.182 28.6695 151.328 28.291 151.413 27.8697C151.499 27.4484 151.541 27.0171 151.541 26.5738C151.541 26.1326 151.499 25.6963 151.413 25.268C151.328 24.8397 151.182 24.4612 150.977 24.1335C150.771 23.8048 150.495 23.5369 150.147 23.3297C149.801 23.1235 149.372 23.0199 148.862 23.0199C148.352 23.0199 147.927 23.1235 147.588 23.3297C147.246 23.5369 146.973 23.8048 146.768 24.1335C146.562 24.4612 146.418 24.8397 146.333 25.268C146.248 25.6963 146.204 26.1326 146.204 26.5738C146.204 27.0171 146.248 27.4484 146.333 27.8697ZM143.591 24.1654C143.859 23.4452 144.243 22.8307 144.739 22.3237C145.234 21.8177 145.829 21.4243 146.524 21.1464C147.219 20.8685 147.998 20.728 148.862 20.728C149.726 20.728 150.509 20.8685 151.211 21.1464C151.912 21.4243 152.512 21.8177 153.007 22.3237C153.503 22.8307 153.886 23.4452 154.155 24.1654C154.425 24.8865 154.558 25.6903 154.558 26.5738C154.558 27.4593 154.425 28.2591 154.155 28.9723C153.886 29.6865 153.503 30.297 153.007 30.803C152.512 31.31 151.912 31.6995 151.211 31.9704C150.509 32.2413 149.726 32.3768 148.862 32.3768C147.998 32.3768 147.219 32.2413 146.524 31.9704C145.829 31.6995 145.234 31.31 144.739 30.803C144.243 30.297 143.859 29.6865 143.591 28.9723C143.321 28.2591 143.186 27.4593 143.186 26.5738C143.186 25.6903 143.321 24.8865 143.591 24.1654Z" fill="#6C6C6C"></path><path fill-rule="evenodd" clip-rule="evenodd" d="M159.384 21.0283V22.5702H159.447C159.831 21.9268 160.326 21.4606 160.935 21.1678C161.546 20.875 162.168 20.7275 162.807 20.7275C163.615 20.7275 164.276 20.8391 164.794 21.0592C165.311 21.2813 165.719 21.5881 166.016 21.9806C166.314 22.374 166.523 22.8521 166.643 23.4149C166.764 23.9796 166.823 24.6042 166.823 25.2884V32.0984H163.805V25.8462C163.805 24.9328 163.664 24.2506 163.38 23.8003C163.097 23.3511 162.593 23.126 161.871 23.126C161.05 23.126 160.454 23.373 160.086 23.8661C159.717 24.3581 159.533 25.1679 159.533 26.2954V32.0984H156.514V21.0283H159.384Z" fill="#6C6C6C"></path><path fill-rule="evenodd" clip-rule="evenodd" d="M171.66 29.3468C171.795 29.5819 171.969 29.7751 172.18 29.9255C172.393 30.0749 172.637 30.1855 172.915 30.2572C173.191 30.3279 173.477 30.3638 173.775 30.3638C173.988 30.3638 174.21 30.3389 174.443 30.2891C174.679 30.2393 174.891 30.1606 175.082 30.053C175.273 29.9464 175.432 29.804 175.56 29.6247C175.687 29.4474 175.753 29.2223 175.753 28.9514C175.753 28.4942 175.45 28.1516 174.849 27.9225C174.245 27.6944 173.406 27.4663 172.329 27.2382C171.889 27.1376 171.461 27.02 171.043 26.8836C170.625 26.7491 170.253 26.5708 169.927 26.3487C169.601 26.1286 169.338 25.8497 169.141 25.514C168.942 25.1784 168.842 24.768 168.842 24.2829C168.842 23.5687 168.982 22.9841 169.257 22.5269C169.534 22.0697 169.899 21.7101 170.353 21.4452C170.806 21.1812 171.316 20.996 171.884 20.8884C172.449 20.7808 173.032 20.728 173.626 20.728C174.221 20.728 174.798 20.7848 175.358 20.9003C175.919 21.0139 176.418 21.2061 176.857 21.478C177.296 21.749 177.661 22.1085 177.952 22.5598C178.241 23.009 178.415 23.5757 178.473 24.262H175.602C175.56 23.6763 175.34 23.2799 174.943 23.0727C174.547 22.8655 174.079 22.7629 173.54 22.7629C173.371 22.7629 173.187 22.7729 172.988 22.7948C172.79 22.8157 172.609 22.8626 172.446 22.9343C172.283 23.005 172.145 23.1086 172.032 23.244C171.918 23.3805 171.861 23.5618 171.861 23.7899C171.861 24.0618 171.961 24.2829 172.159 24.4542C172.357 24.6256 172.616 24.764 172.935 24.8716C173.254 24.9782 173.619 25.0748 174.029 25.1604C174.44 25.2461 174.859 25.3397 175.284 25.4383C175.723 25.5389 176.151 25.6604 176.57 25.8029C176.988 25.9453 177.36 26.1346 177.686 26.3706C178.012 26.6057 178.273 26.8985 178.473 27.2491C178.671 27.5988 178.77 28.03 178.77 28.544C178.77 29.2721 178.625 29.8817 178.334 30.3747C178.044 30.8668 177.664 31.2632 177.197 31.564C176.729 31.8628 176.195 32.073 175.592 32.1945C174.989 32.315 174.376 32.3768 173.753 32.3768C173.116 32.3768 172.493 32.313 171.884 32.1845C171.272 32.0561 170.732 31.8419 170.257 31.5411C169.782 31.2423 169.392 30.8459 169.087 30.3538C168.783 29.8618 168.616 29.2432 168.588 28.5002H171.457C171.457 28.8289 171.525 29.1117 171.66 29.3468Z" fill="#6C6C6C"></path></g></svg> 