<svg xmlns="http://www.w3.org/2000/svg" width="200" height="31.22"><title>logo-netsmart-color</title><path fill="#044872" d="M192.12 14.6h-2.74v2.93h2.74v6.67c0 2.4.4 3.92 4.5 3.92 1 0 2.6-.14 3.38-.24V25c-.7 0-1.35.1-2.12.1-1.12 0-1.45-.35-1.45-1.38v-6.2h3.5v-2.9h-3.5v-4.1h-4.34v4.1zm-14.7 13.23h4.35v-5.7c0-2.56 1.4-4.06 4.36-4.06a8.92 8.92 0 0 1 2.4.4v-4a8.35 8.35 0 0 0-1.58-.13c-2.46 0-3.7.9-5.28 2.93v-2.62h-4.2v13.18zm-14.5-9.18c.6-1.82 1.57-2 3.37-2 2.5 0 3.37.52 3.37 1.58s-.44 1.28-1.77 1.4l-4.6.3c-2.65.18-5.48.87-5.48 4.08s2.42 4.3 5.86 4.3c1.95 0 4.7-.42 6.2-1.9a5.63 5.63 0 0 0 .3 1.4h4.32a6.42 6.42 0 0 1-.48-2.67V18.6c0-2.46-1.34-4.5-7.55-4.5-3.55 0-7.3.47-7.88 4.5zm7 3.83c0 2.25-2.43 3.28-4.62 3.28-1.63 0-2.74-.67-2.74-1.85s.77-1.6 2.25-1.7l2.5-.2a6.8 6.8 0 0 0 2.55-.57v1.13zm-19 5.35h4.3v-8.9c0-3.47-2.6-4.6-5.26-4.6a6.52 6.52 0 0 0-5.44 2.5c-.67-1.52-2-2.5-4.5-2.5a6.93 6.93 0 0 0-5.4 2.25v-2h-4.2v13.25h4.35v-7.15a3 3 0 0 1 2.87-3.1 4.07 4.07 0 0 1 .5 0c1.2 0 2.6.5 2.6 2.26v7.88h4.35v-7.04a3 3 0 0 1 2.83-3.08 3.4 3.4 0 0 1 .45 0c1.25 0 2.65.5 2.65 2.25v7.88zm-39.17-4.1c.22 3.14 2.76 4.6 7.77 4.6 3.76 0 8.15-.55 8.15-4.5 0-2.26-1.43-3.6-5.84-4.07l-3-.32c-1.86-.2-2.25-.62-2.25-1.24 0-1.3 1.7-1.4 2.84-1.4s2.7.4 2.94 1.75h4.77c-.3-2.46-1.72-4.5-7.8-4.5-3.6 0-7.23.86-7.23 4.44 0 2.5 1.58 3.36 4.34 3.72l4 .56c2.1.3 2.45.58 2.45 1.32 0 1-1.13 1.43-3.14 1.43-2.25 0-3-.74-3.22-1.88zm-9.27-9.12H99.7v2.93h2.74v6.67c0 2.4.4 3.92 4.5 3.92 1 0 2.6-.14 3.38-.24V25c-.7 0-1.35.1-2.12.1-1.12 0-1.45-.35-1.45-1.38v-6.2h3.5v-2.9h-3.48v-4.1h-4.33zm-16.9 5.2c0-.3.72-2.92 4.15-2.92 3.18 0 4.1 2.25 4.1 2.93h-8.28zm7.9 4.1a3.75 3.75 0 0 1-3.56 1.7c-3 0-4.24-1.9-4.24-3.17h12.65V22c0-5-2.76-7.88-8.48-7.88-5.23 0-8.74 2.12-8.74 7.1s3.52 7.1 8.75 7.1c4 0 7-1.3 8.23-4.44zm-19.9-1.4l-9.3-12.27h-5.55v17.6h4.64V15.56L73 27.83h5.2v-17.6h-4.63zM192.12 14.6h-2.74v2.93h2.74v6.67c0 2.4.4 3.92 4.5 3.92 1 0 2.6-.14 3.38-.24V25c-.7 0-1.35.1-2.12.1-1.12 0-1.45-.35-1.45-1.38v-6.2h3.5v-2.9h-3.5v-4.1h-4.34v4.1zM177.43 27.83h4.34v-5.7c0-2.56 1.4-4.06 4.36-4.06a8.92 8.92 0 0 1 2.4.4v-4a8.35 8.35 0 0 0-1.58-.13c-2.46 0-3.7.9-5.28 2.93v-2.62h-4.2v13.18zM150.88 27.83h4.3v-8.9c0-3.47-2.6-4.6-5.26-4.6a6.52 6.52 0 0 0-5.44 2.5c-.67-1.52-2-2.5-4.5-2.5a6.93 6.93 0 0 0-5.4 2.25v-2h-4.2v13.25h4.35v-7.15a3 3 0 0 1 2.87-3.1 4.07 4.07 0 0 1 .5 0c1.2 0 2.6.5 2.6 2.26v7.88h4.35v-7.04a3 3 0 0 1 2.84-3.08 3.4 3.4 0 0 1 .44 0c1.25 0 2.65.5 2.65 2.25v7.88zM111.7 23.73c.23 3.14 2.77 4.6 7.78 4.6 3.76 0 8.15-.55 8.15-4.5 0-2.26-1.43-3.6-5.84-4.07l-3-.32c-1.87-.2-2.26-.62-2.26-1.24 0-1.3 1.7-1.4 2.84-1.4s2.7.4 2.94 1.75h4.77c-.3-2.46-1.73-4.5-7.82-4.5-3.6 0-7.22.86-7.22 4.44 0 2.5 1.58 3.36 4.34 3.72l4 .56c2.1.3 2.45.58 2.45 1.32 0 1-1.12 1.43-3.13 1.43-2.25 0-3-.74-3.22-1.88zM102.44 14.6H99.7v2.93h2.74v6.67c0 2.4.4 3.92 4.5 3.92 1 0 2.6-.14 3.38-.24V25c-.7 0-1.35.1-2.12.1-1.12 0-1.45-.35-1.45-1.38v-6.2h3.5v-2.9h-3.48v-4.1h-4.33zM73.57 22.5h-.04l-9.25-12.27h-5.55v17.6h4.64V15.55h.05l9.6 12.28h5.2v-17.6h-4.65V22.5zM52.9 11.9c-11.13-2.75-19.4 9.36-26.48 19.32v-8.15C32.22 15 44.44 6.14 52.92 11.9zM0 11.83c11.16-2.73 19.4 9.36 26.42 19.4v-8.16C20.67 15 8.5 6.07 0 11.83z"/><circle cx="12.72" cy="5.58" r="2.59" fill="#044872"/><circle cx="40.44" cy="5.58" r="2.59" fill="#044872"/><path fill="#84bd00" d="M46.24 17.44c-.54-1.45-2.82-5.7-11.46-7.12a39.6 39.6 0 0 0-16.65.1c-8 1.48-10.65 5.43-11.4 6.9 1.5-.76 6-2.64 15.34-2.86h1l3.38 16.76 3.37-16.75h1.06c9.47.26 13.97 2.2 15.36 2.97z"/><circle cx="26.38" cy="3.58" r="3.58" fill="#84bd00"/></svg>